<?xml version="1.0" standalone="no"?>
<!DOCTYPE svg PUBLIC "-//W3C//DTD SVG 20010904//EN"
 "http://www.w3.org/TR/2001/REC-SVG-20010904/DTD/svg10.dtd">
<svg version="1.0" xmlns="http://www.w3.org/2000/svg"
 width="440.000000pt" height="193.000000pt" viewBox="0 0 440.000000 193.000000"
 preserveAspectRatio="xMidYMid meet">

<g transform="translate(0.000000,193.000000) scale(0.100000,-0.100000)"
fill="#000000" stroke="none">
<path d="M2140 1642 c-62 -33 -88 -121 -56 -195 19 -47 55 -67 118 -67 67 0
114 27 135 78 18 43 12 118 -12 156 -31 47 -123 60 -185 28z"/>
<path d="M2358 1525 c4 -52 0 -70 -17 -98 -23 -37 -57 -57 -99 -57 -19 0 -23
-3 -13 -9 16 -10 63 1 98 24 35 24 56 80 50 138 -7 75 -24 78 -19 2z"/>
<path d="M2188 1363 c7 -3 16 -2 19 1 4 3 -2 6 -13 5 -11 0 -14 -3 -6 -6z"/>
<path d="M645 1313 c-212 -26 -364 -161 -421 -374 -11 -42 -16 -102 -16 -174
0 -186 53 -301 170 -368 31 -17 60 -31 65 -29 4 1 7 -3 7 -8 0 -6 12 -8 28 -4
20 4 23 3 13 -4 -10 -7 3 -9 45 -6 32 2 96 5 141 8 181 9 331 125 398 307 19
50 24 58 24 35 1 -44 -54 -149 -111 -211 -80 -87 -165 -130 -293 -145 l-70 -9
80 4 c91 3 145 22 227 77 64 43 114 100 151 173 21 42 26 47 32 30 22 -67 56
-124 97 -165 49 -49 110 -85 141 -82 9 0 15 -4 11 -9 -3 -6 5 -7 23 -4 16 4
23 3 16 -2 -18 -13 204 -4 288 12 132 26 153 36 161 81 16 84 48 337 44 341
-3 3 -61 2 -130 -2 -145 -8 -129 6 -143 -135 l-8 -85 -40 -3 c-22 -2 -57 1
-77 7 -49 15 -61 54 -60 185 2 164 36 257 104 289 34 15 200 28 191 15 -2 -5
5 -9 16 -9 26 -2 29 -3 65 -18 16 -6 36 -11 44 -9 13 3 100 211 101 243 2 30
-222 58 -359 45 -209 -20 -358 -110 -434 -261 -25 -51 -29 -52 -39 -8 -10 39
-38 102 -43 96 -3 -3 1 -18 9 -34 21 -40 42 -152 31 -163 -6 -6 -11 3 -12 23
-4 60 -14 112 -28 139 -8 15 -15 35 -17 45 -5 33 -87 102 -161 136 -62 28
-174 41 -261 30z m61 -230 c-4 -4 -19 -9 -34 -11 -79 -10 -124 -76 -143 -207
-11 -75 -7 -207 6 -250 4 -11 -1 -7 -10 9 -14 24 -17 51 -13 170 3 126 6 147
30 198 14 31 37 62 50 69 38 21 131 38 114 22z m1003 -9 c2 -2 -29 -4 -70 -4
-114 -1 -170 -40 -200 -139 -16 -53 -24 -254 -11 -291 6 -17 7 -28 2 -25 -23
14 -33 115 -22 215 18 167 59 231 162 250 32 6 130 2 139 -6z m-968 -3 c-11
-7 -7 -10 15 -13 40 -4 53 -46 53 -183 2 -223 -50 -315 -176 -315 -32 0 -57 6
-66 15 -8 8 -17 12 -19 10 -2 -3 -5 55 -7 128 -3 202 22 296 90 329 40 19 88
36 109 37 13 1 13 -1 1 -8z"/>
<path d="M2743 1309 c-116 -19 -212 -73 -292 -164 -140 -160 -162 -500 -43
-665 34 -48 118 -110 148 -110 13 0 24 -4 24 -9 0 -5 10 -7 22 -3 12 3 19 1
15 -5 -4 -6 15 -9 51 -7 51 2 53 2 17 -5 l-40 -8 43 -2 c23 0 42 4 42 9 0 6
19 10 43 10 56 0 145 24 205 54 104 53 184 150 229 277 24 66 27 89 27 214 0
105 -3 150 -15 180 -28 70 -30 81 -5 30 32 -64 46 -149 41 -250 -5 -103 -19
-162 -62 -253 -73 -154 -237 -262 -400 -262 -24 0 -43 -4 -43 -8 0 -4 39 -4
86 0 111 9 193 47 275 124 113 109 165 259 157 457 -5 129 -30 204 -82 249
-17 15 -27 28 -22 28 17 0 -70 63 -119 86 -50 23 -161 45 -220 43 -16 -1 -53
-5 -82 -10z m37 -242 c-62 -21 -66 -24 -94 -80 -28 -55 -30 -67 -34 -201 -4
-121 -2 -147 12 -172 10 -16 15 -20 11 -9 -13 43 -17 175 -6 250 21 148 71
207 173 207 41 0 56 -4 69 -21 41 -50 34 -303 -11 -395 -29 -60 -69 -86 -135
-86 -75 0 -110 26 -124 90 -22 104 -8 278 30 351 21 43 53 68 102 79 66 16 70
8 7 -13z"/>
<path d="M4061 1298 c-69 -4 -128 -11 -131 -15 -4 -5 -17 -109 -29 -233 -13
-124 -24 -227 -27 -229 -4 -5 -27 46 -116 269 -38 96 -74 180 -80 185 -11 11
-2 -10 106 -279 43 -103 75 -190 73 -192 -2 -3 -49 107 -104 243 l-100 248
-159 0 -159 0 -12 -120 c-42 -436 -78 -729 -99 -797 -5 -17 6 -18 125 -18 153
0 134 -22 151 180 15 191 32 313 43 325 6 6 7 -8 3 -40 -10 -73 -46 -426 -46
-452 0 -22 -4 -22 -127 -26 l-128 -3 135 1 135 0 12 140 c19 221 35 337 44
328 4 -4 48 -107 96 -228 l89 -220 156 -3 156 -2 5 42 c4 24 9 84 12 133 4 50
29 240 56 424 27 184 48 337 47 340 -2 3 -59 3 -127 -1z"/>
<path d="M2036 1268 c-3 -18 -19 -170 -36 -338 -26 -259 -52 -450 -75 -547
l-5 -23 144 0 144 0 6 38 c3 20 8 75 11 122 8 105 14 157 65 495 22 149 40
273 40 278 0 4 -65 7 -145 7 l-144 0 -5 -32z"/>
<path d="M2347 1270 c-12 -30 -96 -638 -108 -777 l-12 -142 -141 -4 -141 -3
147 -2 c173 -2 151 -25 167 178 6 74 32 272 57 438 40 270 49 360 31 312z"/>
<path d="M4197 1228 c-4 -29 -23 -159 -42 -288 -20 -129 -43 -315 -52 -412
l-16 -177 -151 -4 -151 -3 157 -2 157 -2 5 33 c3 17 8 66 11 107 12 154 15
180 80 614 28 193 28 186 16 186 -4 0 -11 -24 -14 -52z"/>
<path d="M1931 1131 c-27 -76 -49 -122 -60 -125 -9 -2 -5 -4 9 -3 22 2 29 14
67 117 45 125 47 130 35 130 -4 0 -27 -54 -51 -119z"/>
<path d="M1889 583 l-24 -188 -80 -23 c-44 -12 -115 -26 -157 -29 -43 -3 -78
-9 -78 -12 0 -13 188 8 255 29 39 12 71 23 72 24 2 2 53 367 53 380 0 3 -4 6
-8 6 -5 0 -20 -84 -33 -187z"/>
<path d="M538 333 c12 -2 32 -2 45 0 12 2 2 4 -23 4 -25 0 -35 -2 -22 -4z"/>
<path d="M1453 333 c15 -2 37 -2 50 0 12 2 0 4 -28 4 -27 0 -38 -2 -22 -4z"/>
</g>
</svg>
